<svg width="1920" height="1080" viewBox="0 0 1920 1080" fill="none" xmlns="http://www.w3.org/2000/svg">
<g clip-path="url(#clip0_503_4974)">
<rect width="1920" height="1080" fill="#C9F5FF"/>
<path d="M-306.696 1191.44L-144.249 910.074L18.197 1191.44H-306.696Z" fill="#AEEBF9" stroke="#B8D9E0" stroke-width="1.33983"/>
<path d="M71.1364 1191.44L233.583 910.074L396.029 1191.44H71.1364Z" fill="#AEEBF9" stroke="#B8D9E0" stroke-width="1.33983"/>
<path d="M448.97 1191.44L611.417 910.074L773.863 1191.44H448.97Z" fill="#AEEBF9" stroke="#B8D9E0" stroke-width="1.33983"/>
<path d="M-117.78 902.033L44.6667 1183.4L207.113 902.033H-117.78Z" fill="#AEEBF9" stroke="#B8D9E0" stroke-width="1.33983"/>
<path d="M260.054 902.033L422.501 1183.4L584.947 902.033H260.054Z" fill="#AEEBF9" stroke="#B8D9E0" stroke-width="1.33983"/>
<path d="M-117.78 875.236L44.6667 593.871L207.113 875.236H-117.78Z" fill="#AEEBF9" stroke="#B8D9E0" stroke-width="1.33983"/>
<path d="M260.052 875.236L422.499 593.871L584.945 875.236H260.052Z" fill="#AEEBF9" stroke="#B8D9E0" stroke-width="1.33983"/>
<path d="M-306.698 585.83L-144.251 867.195L18.195 585.83H-306.698Z" fill="#BCE8F2" stroke="#BCE8F2" stroke-width="1.33983"/>
<path d="M71.1364 585.83L233.583 867.195L396.029 585.83H71.1364Z" fill="#BCE8F2" stroke="#BCE8F2" stroke-width="1.33983"/>
<path d="M-306.696 565.736L-144.249 284.371L18.197 565.736H-306.696Z" fill="#AEEBF9" stroke="#B8D9E0" stroke-width="1.33983"/>
<path d="M71.1383 565.736L233.585 284.371L396.031 565.736H71.1383Z" fill="#AEEBF9" stroke="#B8D9E0" stroke-width="1.33983"/>
<path d="M-117.78 276.33L44.6667 557.695L207.113 276.33H-117.78Z" fill="#BCE8F2" stroke="#BCE8F2" stroke-width="1.33983"/>
<path d="M-117.78 249.533L44.6667 -31.832L207.113 249.533H-117.78Z" fill="#AEEBF9" stroke="#B8D9E0" stroke-width="1.33983"/>
<path d="M1529.53 -39.873L1367.08 241.492L1204.64 -39.873H1529.53Z" fill="#BCE9F2" stroke="#B8D9E0" stroke-width="1.33983"/>
<path d="M1151.7 -39.873L989.249 241.492L826.803 -39.873H1151.7Z" fill="#BCE9F2" stroke="#B8D9E0" stroke-width="1.33983"/>
<path d="M773.864 -39.873L611.417 241.492L448.971 -39.873H773.864Z" fill="#BCE9F2" stroke="#B8D9E0" stroke-width="1.33983"/>
<path d="M396.03 -39.873L233.583 241.492L71.137 -39.873H396.03Z" fill="#BCE9F2" stroke="#B8D9E0" stroke-width="1.33983"/>
<path d="M1340.61 249.533L1178.17 -31.832L1015.72 249.533H1340.61Z" fill="#AEEBF9" stroke="#B8D9E0" stroke-width="1.33983"/>
<path d="M962.78 249.533L800.333 -31.832L637.887 249.533H962.78Z" fill="#AEEBF9" stroke="#B8D9E0" stroke-width="1.33983"/>
<path d="M584.946 249.533L422.499 -31.832L260.053 249.533H584.946Z" fill="#AEEBF9" stroke="#B8D9E0" stroke-width="1.33983"/>
<path d="M1340.61 276.326L1178.17 557.691L1015.72 276.326H1340.61Z" fill="#BCE9F2" stroke="#BCE8F2" stroke-width="1.33983"/>
<path d="M962.78 276.326L800.333 557.691L637.887 276.326H962.78Z" fill="#BCE9F2" stroke="#BCE8F2" stroke-width="1.33983"/>
<path d="M584.948 276.326L422.501 557.691L260.055 276.326H584.948Z" fill="#BCE9F2" stroke="#BCE8F2" stroke-width="1.33983"/>
<path d="M1151.7 565.732L989.251 284.367L826.805 565.732H1151.7Z" fill="#AEEBF9" stroke="#AEEBF9" stroke-width="1.33983"/>
<path d="M773.864 565.732L611.417 284.367L448.971 565.732H773.864Z" fill="#AEEBF9" stroke="#AEEBF9" stroke-width="1.33983"/>
<path d="M1151.7 585.826L989.249 867.191L826.803 585.826H1151.7Z" fill="#BCE9F2" stroke="#B8D9E0" stroke-width="1.33983"/>
<path d="M773.862 585.826L611.415 867.191L448.969 585.826H773.862Z" fill="#BCE9F2" stroke="#B8D9E0" stroke-width="1.33983"/>
<path d="M962.78 875.232L800.333 593.867L637.887 875.232H962.78Z" fill="#AEEBF9" stroke="#AEEBF9" stroke-width="1.33983"/>
<path d="M962.78 902.029L800.333 1183.39L637.887 902.029H962.78Z" fill="#BCE9F2" stroke="#B8D9E0" stroke-width="1.33983"/>
</g>
<defs>
<clipPath id="clip0_503_4974">
<rect width="1920" height="1080" fill="white"/>
</clipPath>
</defs>
</svg>
