<svg width="200" height="50" viewBox="0 0 200 50" fill="none" xmlns="http://www.w3.org/2000/svg">
<path d="M16.227 0.569958V27.71H9.16962V16.3109H7.05742V27.71H0V0.569958H7.05742V10.276H9.16962V0.569958H16.227Z" fill="#8BC734"/>
<path d="M33.736 0.569958L28.5896 17.8866V27.71H22.0519V17.8866L17.0899 0.569958H23.5773C24.5943 5.85604 25.1643 9.41548 25.2872 11.2483C25.6784 8.35379 26.3321 4.79435 27.2485 0.569958H33.736Z" fill="#8BC734"/>
<path d="M34.5821 0.569958H39.8626C43.2712 0.569958 45.5733 0.726417 46.7691 1.03933C47.9761 1.35225 48.8925 1.86633 49.5183 2.58157C50.1442 3.29681 50.5353 4.09587 50.6918 4.97875C50.8482 5.85045 50.9265 7.5715 50.9265 10.1419V19.6468C50.9265 22.0831 50.8091 23.7147 50.5744 24.5417C50.3509 25.3575 49.9542 26.0001 49.3842 26.4695C48.8143 26.9277 48.1102 27.2518 47.272 27.4418C46.4339 27.6206 45.171 27.71 43.4835 27.71H34.5821V0.569958ZM41.6395 5.21344V23.0665C42.6565 23.0665 43.2823 22.8654 43.517 22.463C43.7517 22.0495 43.8691 20.9376 43.8691 19.1271V8.58289C43.8691 7.35357 43.8299 6.56569 43.7517 6.21925C43.6735 5.8728 43.4947 5.62135 43.2153 5.46489C42.9359 5.29726 42.4106 5.21344 41.6395 5.21344Z" fill="#8BC734"/>
<path d="M53.1807 0.569958H58.1762C61.5065 0.569958 63.7584 0.698478 64.9319 0.955518C66.1165 1.21256 67.0776 1.87192 67.8152 2.93361C68.564 3.98412 68.9383 5.66605 68.9383 7.97941C68.9383 10.0916 68.6757 11.5109 68.1505 12.2373C67.6252 12.9637 66.5915 13.3996 65.0492 13.5449C66.4462 13.8913 67.3849 14.3551 67.8655 14.9362C68.346 15.5174 68.6422 16.0538 68.7539 16.5455C68.8769 17.0261 68.9383 18.3616 68.9383 20.552V27.71H62.3838V18.6913C62.3838 17.2384 62.2665 16.3388 62.0318 15.9923C61.8083 15.6459 61.2104 15.4727 60.2381 15.4727V27.71H53.1807V0.569958ZM60.2381 5.21344V11.2483C61.0316 11.2483 61.5848 11.1421 61.8977 10.9298C62.2218 10.7063 62.3838 9.99661 62.3838 8.80082V7.30887C62.3838 6.44835 62.2274 5.88398 61.9145 5.61576C61.6127 5.34755 61.0539 5.21344 60.2381 5.21344Z" fill="#8BC734"/>
<path d="M87.4364 16.4617C87.4364 19.1886 87.3693 21.122 87.2352 22.2619C87.1123 23.3906 86.7099 24.4244 86.0282 25.3631C85.3577 26.3019 84.4469 27.0227 83.2958 27.5256C82.1447 28.0285 80.8036 28.28 79.2726 28.28C77.8197 28.28 76.5122 28.0453 75.3499 27.5759C74.1988 27.0953 73.2712 26.3801 72.5672 25.4302C71.8631 24.4802 71.444 23.4465 71.3099 22.3289C71.1758 21.2114 71.1087 19.2556 71.1087 16.4617V11.8182C71.1087 9.09139 71.1702 7.16359 71.2931 6.03485C71.4273 4.89493 71.8296 3.8556 72.5001 2.91684C73.1818 1.97809 74.0982 1.25726 75.2493 0.754356C76.4004 0.251452 77.7415 0 79.2726 0C80.7254 0 82.0273 0.240276 83.1784 0.720829C84.3407 1.19021 85.2739 1.89986 85.9779 2.84979C86.682 3.79972 87.1011 4.83347 87.2352 5.95103C87.3693 7.06859 87.4364 9.02433 87.4364 11.8182V16.4617ZM80.3789 7.54356C80.3789 6.28071 80.3063 5.47607 80.161 5.12962C80.0269 4.772 79.7419 4.59319 79.3061 4.59319C78.9373 4.59319 78.6523 4.73847 78.4511 5.02904C78.2612 5.30843 78.1662 6.1466 78.1662 7.54356V20.2167C78.1662 21.7925 78.2276 22.7648 78.3506 23.1336C78.4847 23.5024 78.7864 23.6868 79.2558 23.6868C79.7363 23.6868 80.0437 23.4744 80.1778 23.0498C80.3119 22.6251 80.3789 21.6137 80.3789 20.0156V7.54356Z" fill="#8BC734"/>
<path d="M104.66 8.78406H98.1058V6.77244C98.1058 5.83369 98.022 5.23579 97.8544 4.97875C97.6867 4.72171 97.4073 4.59319 97.0162 4.59319C96.5915 4.59319 96.2674 4.76641 96.0439 5.11286C95.8316 5.4593 95.7254 5.98456 95.7254 6.68862C95.7254 7.59385 95.8484 8.27556 96.0942 8.73377C96.3289 9.19197 96.9939 9.74516 98.0891 10.3933C101.229 12.2597 103.208 13.7907 104.023 14.9865C104.839 16.1823 105.247 18.1101 105.247 20.7699C105.247 22.7033 105.018 24.1282 104.56 25.0446C104.113 25.961 103.241 26.7321 101.945 27.358C100.648 27.9726 99.1396 28.28 97.4185 28.28C95.5298 28.28 93.915 27.9223 92.5739 27.2071C91.244 26.4919 90.3723 25.581 89.9588 24.4747C89.5453 23.3683 89.3385 21.7981 89.3385 19.7641V17.9872H95.8931V21.2896C95.8931 22.3066 95.9825 22.9604 96.1613 23.2509C96.3513 23.5415 96.6809 23.6868 97.1503 23.6868C97.6197 23.6868 97.9661 23.5024 98.1897 23.1336C98.4243 22.7648 98.5417 22.2172 98.5417 21.4908C98.5417 19.8926 98.3238 18.8477 97.8879 18.356C97.4409 17.8643 96.3401 17.0429 94.5855 15.8918C92.8309 14.7295 91.6687 13.8857 91.0987 13.3605C90.5287 12.8352 90.0538 12.1088 89.6738 11.1812C89.305 10.2537 89.1206 9.06903 89.1206 7.62738C89.1206 5.54871 89.3832 4.02882 89.9085 3.06771C90.4449 2.10661 91.3055 1.35784 92.4901 0.82141C93.6747 0.273803 95.1052 0 96.7815 0C98.6143 0 100.173 0.296155 101.459 0.888464C102.755 1.48077 103.61 2.22954 104.023 3.13477C104.448 4.02882 104.66 5.55429 104.66 7.71119V8.78406Z" fill="#8BC734"/>
<path d="M107.099 0.569958H114.207C116.129 0.569958 117.604 0.720829 118.632 1.02257C119.672 1.32431 120.448 1.76016 120.962 2.33012C121.488 2.90008 121.84 3.59297 122.018 4.40879C122.208 5.21344 122.303 6.46511 122.303 8.16381V10.5275C122.303 12.2597 122.125 13.5225 121.767 14.316C121.409 15.1095 120.75 15.7185 119.789 16.1432C118.839 16.5679 117.593 16.7802 116.051 16.7802H114.156V27.71H107.099V0.569958ZM114.156 5.21344V12.12C114.358 12.1312 114.531 12.1367 114.676 12.1367C115.324 12.1367 115.771 11.9803 116.017 11.6674C116.274 11.3433 116.403 10.6783 116.403 9.67252V7.44298C116.403 6.5154 116.257 5.91192 115.967 5.63252C115.676 5.35313 115.073 5.21344 114.156 5.21344Z" fill="#8BC734"/>
<path d="M123.954 0.569958H128.95C132.28 0.569958 134.532 0.698478 135.705 0.955518C136.89 1.21256 137.851 1.87192 138.589 2.93361C139.337 3.98412 139.712 5.66605 139.712 7.97941C139.712 10.0916 139.449 11.5109 138.924 12.2373C138.399 12.9637 137.365 13.3996 135.823 13.5449C137.22 13.8913 138.158 14.3551 138.639 14.9362C139.12 15.5174 139.416 16.0538 139.527 16.5455C139.65 17.0261 139.712 18.3616 139.712 20.552V27.71H133.157V18.6913C133.157 17.2384 133.04 16.3388 132.805 15.9923C132.582 15.6459 131.984 15.4727 131.012 15.4727V27.71H123.954V0.569958ZM131.012 5.21344V11.2483C131.805 11.2483 132.358 11.1421 132.671 10.9298C132.995 10.7063 133.157 9.99661 133.157 8.80082V7.30887C133.157 6.44835 133.001 5.88398 132.688 5.61576C132.386 5.34755 131.827 5.21344 131.012 5.21344Z" fill="#8BC734"/>
<path d="M154.27 0.569958L158.31 27.71H151.085L150.733 22.8318H148.202L147.783 27.71H140.474L144.061 0.569958H154.27ZM150.532 18.0207C150.175 14.9474 149.817 11.1533 149.459 6.63833C148.744 11.8238 148.297 15.618 148.118 18.0207H150.532Z" fill="#8BC734"/>
<path d="M174.177 0.569958L169.03 17.8866V27.71H162.492V17.8866L157.53 0.569958H164.018C165.035 5.85604 165.605 9.41548 165.728 11.2483C166.119 8.35379 166.773 4.79435 167.689 0.569958H174.177Z" fill="#8BC734"/>
<path d="M178.057 14.2992V2.95037H173.816V0.569958H184.963V2.95037H180.84V14.2992H178.057ZM185.986 14.2992V0.569958H190.328L192.825 10.0246L195.323 0.569958H199.682V14.2992H197.033V3.35269L194.066 14.2992H191.551L188.601 3.35269V14.2992H185.986Z" fill="#8BC734"/>
<path d="M1.14489 47.28V37.8254H2.23438V41.3155H2.3267C2.40672 41.1924 2.51752 41.0354 2.65909 40.8446C2.80374 40.6507 3.00994 40.4784 3.2777 40.3276C3.54853 40.1737 3.91477 40.0967 4.37642 40.0967C4.97348 40.0967 5.49976 40.246 5.95526 40.5445C6.41075 40.8431 6.76622 41.2662 7.02166 41.8141C7.27711 42.3619 7.40483 43.0082 7.40483 43.753C7.40483 44.5039 7.27711 45.1549 7.02166 45.7057C6.76622 46.2536 6.41229 46.6783 5.95987 46.9799C5.50746 47.2784 4.9858 47.4277 4.39489 47.4277C3.93939 47.4277 3.57469 47.3523 3.30078 47.2015C3.02687 47.0476 2.81605 46.8737 2.66832 46.6798C2.5206 46.4829 2.40672 46.3197 2.3267 46.1905H2.19744V47.28H1.14489ZM2.21591 43.7345C2.21591 44.27 2.29439 44.7424 2.45135 45.1518C2.60831 45.558 2.83759 45.8766 3.1392 46.1074C3.44081 46.3351 3.81013 46.449 4.24716 46.449C4.70265 46.449 5.08274 46.329 5.38743 46.0889C5.69519 45.8458 5.92602 45.5196 6.0799 45.1102C6.23686 44.6978 6.31534 44.2392 6.31534 43.7345C6.31534 43.2359 6.2384 42.7866 6.08452 42.3865C5.93371 41.9833 5.70443 41.6648 5.39666 41.4309C5.09197 41.1939 4.70881 41.0754 4.24716 41.0754C3.80398 41.0754 3.43158 41.1878 3.12997 41.4124C2.82836 41.634 2.60062 41.9449 2.44673 42.345C2.29285 42.742 2.21591 43.2052 2.21591 43.7345Z" fill="white"/>
<path d="M9.51918 49.9391C9.33452 49.9391 9.16986 49.9237 9.02521 49.8929C8.88056 49.8652 8.78054 49.8375 8.72514 49.8098L9.00213 48.8496C9.26681 48.9173 9.50071 48.9419 9.70384 48.9234C9.90696 48.905 10.087 48.8142 10.244 48.6511C10.404 48.491 10.5502 48.231 10.6825 47.8709L10.8857 47.3169L8.26349 40.1891H9.44531L11.4027 45.8396H11.4766L13.4339 40.1891H14.6158L11.6058 48.3141C11.4704 48.6803 11.3027 48.9835 11.1026 49.2235C10.9026 49.4666 10.6702 49.6467 10.4055 49.7636C10.1439 49.8806 9.84848 49.9391 9.51918 49.9391Z" fill="white"/>
<path d="M26.3208 40.78C26.2193 40.4691 26.0854 40.1906 25.9192 39.9444C25.7561 39.6951 25.5607 39.4827 25.3329 39.3073C25.1083 39.1319 24.8528 38.998 24.5666 38.9057C24.2804 38.8133 23.9664 38.7672 23.6248 38.7672C23.0647 38.7672 22.5553 38.9118 22.0968 39.2011C21.6382 39.4904 21.2735 39.9167 21.0027 40.4799C20.7318 41.0431 20.5964 41.734 20.5964 42.5527C20.5964 43.3714 20.7334 44.0623 21.0073 44.6255C21.2812 45.1887 21.652 45.615 22.1199 45.9043C22.5877 46.1936 23.1139 46.3382 23.6987 46.3382C24.2404 46.3382 24.7174 46.2228 25.1298 45.992C25.5453 45.7581 25.8684 45.4288 26.0993 45.004C26.3332 44.5762 26.4501 44.0731 26.4501 43.4945L26.801 43.5683H23.9572V42.5527H27.5581V43.5683C27.5581 44.347 27.3919 45.0241 27.0595 45.5996C26.7302 46.1751 26.2747 46.6214 25.693 46.9384C25.1144 47.2523 24.4496 47.4092 23.6987 47.4092C22.8616 47.4092 22.126 47.2123 21.492 46.8183C20.8611 46.4244 20.3687 45.8643 20.0147 45.1379C19.6639 44.4116 19.4885 43.5499 19.4885 42.5527C19.4885 41.8048 19.5885 41.1324 19.7885 40.5353C19.9917 39.9352 20.2779 39.4243 20.6472 39.0026C21.0165 38.581 21.4535 38.2578 21.9583 38.0332C22.463 37.8085 23.0185 37.6962 23.6248 37.6962C24.1234 37.6962 24.5881 37.7716 25.019 37.9224C25.4529 38.0701 25.8392 38.2809 26.1777 38.5548C26.5194 38.8257 26.804 39.1504 27.0318 39.5289C27.2595 39.9044 27.4165 40.3214 27.5027 40.78H26.3208Z" fill="white"/>
<path d="M29.3712 47.28V40.1891H30.4237V41.2601H30.4976C30.6269 40.9092 30.8608 40.6245 31.1993 40.406C31.5378 40.1875 31.9195 40.0783 32.3442 40.0783C32.4242 40.0783 32.5242 40.0798 32.6443 40.0829C32.7643 40.086 32.8551 40.0906 32.9166 40.0967V41.2047C32.8797 41.1955 32.7951 41.1816 32.6627 41.1631C32.5335 41.1416 32.3965 41.1308 32.2519 41.1308C31.9072 41.1308 31.5994 41.2031 31.3286 41.3478C31.0608 41.4894 30.8485 41.6863 30.6915 41.9387C30.5376 42.188 30.4607 42.4727 30.4607 42.7928V47.28H29.3712Z" fill="white"/>
<path d="M36.9653 47.4277C36.282 47.4277 35.6927 47.2769 35.1972 46.9753C34.7048 46.6706 34.3247 46.2459 34.0569 45.7011C33.7922 45.1533 33.6599 44.5162 33.6599 43.7899C33.6599 43.0636 33.7922 42.4234 34.0569 41.8695C34.3247 41.3124 34.6971 40.8785 35.1741 40.5676C35.6542 40.2537 36.2143 40.0967 36.8545 40.0967C37.2238 40.0967 37.5885 40.1583 37.9486 40.2814C38.3087 40.4045 38.6365 40.6045 38.9319 40.8815C39.2274 41.1554 39.4628 41.5186 39.6382 41.971C39.8137 42.4234 39.9014 42.9805 39.9014 43.6422V44.1038H34.4355V43.1621H38.7934C38.7934 42.762 38.7134 42.405 38.5534 42.091C38.3964 41.7771 38.1717 41.5294 37.8793 41.3478C37.59 41.1662 37.2484 41.0754 36.8545 41.0754C36.4205 41.0754 36.0451 41.1831 35.7281 41.3986C35.4142 41.6109 35.1726 41.8879 35.0033 42.2295C34.834 42.5712 34.7494 42.9374 34.7494 43.3283V43.9561C34.7494 44.4916 34.8417 44.9456 35.0264 45.318C35.2141 45.6873 35.4742 45.9689 35.8066 46.1628C36.1389 46.3536 36.5252 46.449 36.9653 46.449C37.2515 46.449 37.51 46.409 37.7409 46.329C37.9748 46.2459 38.1763 46.1228 38.3456 45.9597C38.5149 45.7935 38.6457 45.5873 38.738 45.341L39.7906 45.6365C39.6798 45.9935 39.4936 46.3074 39.232 46.5783C38.9704 46.846 38.6472 47.0553 38.2625 47.2061C37.8778 47.3538 37.4454 47.4277 36.9653 47.4277Z" fill="white"/>
<path d="M44.5317 47.4277C43.8485 47.4277 43.2591 47.2769 42.7636 46.9753C42.2712 46.6706 41.8911 46.2459 41.6233 45.7011C41.3586 45.1533 41.2263 44.5162 41.2263 43.7899C41.2263 43.0636 41.3586 42.4234 41.6233 41.8695C41.8911 41.3124 42.2635 40.8785 42.7405 40.5676C43.2206 40.2537 43.7807 40.0967 44.4209 40.0967C44.7902 40.0967 45.1549 40.1583 45.515 40.2814C45.8751 40.4045 46.2029 40.6045 46.4983 40.8815C46.7938 41.1554 47.0292 41.5186 47.2046 41.971C47.3801 42.4234 47.4678 42.9805 47.4678 43.6422V44.1038H42.0019V43.1621H46.3598C46.3598 42.762 46.2798 42.405 46.1198 42.091C45.9628 41.7771 45.7381 41.5294 45.4458 41.3478C45.1565 41.1662 44.8148 41.0754 44.4209 41.0754C43.9869 41.0754 43.6115 41.1831 43.2945 41.3986C42.9806 41.6109 42.739 41.8879 42.5697 42.2295C42.4004 42.5712 42.3158 42.9374 42.3158 43.3283V43.9561C42.3158 44.4916 42.4081 44.9456 42.5928 45.318C42.7805 45.6873 43.0406 45.9689 43.373 46.1628C43.7053 46.3536 44.0916 46.449 44.5317 46.449C44.8179 46.449 45.0764 46.409 45.3073 46.329C45.5412 46.2459 45.7428 46.1228 45.912 45.9597C46.0813 45.7935 46.2121 45.5873 46.3044 45.341L47.357 45.6365C47.2462 45.9935 47.06 46.3074 46.7984 46.5783C46.5368 46.846 46.2136 47.0553 45.8289 47.2061C45.4442 47.3538 45.0118 47.4277 44.5317 47.4277Z" fill="white"/>
<path d="M50.2146 43.0143V47.28H49.1251V40.1891H50.1776V41.297H50.27C50.4362 40.9369 50.6885 40.6476 51.0271 40.4291C51.3656 40.2075 51.8026 40.0967 52.3382 40.0967C52.8183 40.0967 53.2384 40.1952 53.5985 40.3922C53.9585 40.5861 54.2386 40.8815 54.4387 41.2785C54.6387 41.6725 54.7387 42.1711 54.7387 42.7743V47.28H53.6492V42.8481C53.6492 42.2911 53.5046 41.8571 53.2153 41.5463C52.926 41.2324 52.529 41.0754 52.0242 41.0754C51.6765 41.0754 51.3656 41.1508 51.0917 41.3016C50.8209 41.4524 50.607 41.6725 50.45 41.9618C50.2931 42.2511 50.2146 42.6019 50.2146 43.0143Z" fill="white"/>
<path d="M62.0478 40.1891C61.9924 39.7213 61.7677 39.3581 61.3738 39.0996C60.9798 38.841 60.4966 38.7118 59.9242 38.7118C59.5056 38.7118 59.1394 38.7795 58.8255 38.9149C58.5146 39.0503 58.2715 39.2365 58.0961 39.4735C57.9237 39.7105 57.8375 39.9798 57.8375 40.2814C57.8375 40.5338 57.8975 40.7507 58.0176 40.9323C58.1407 41.1108 58.2976 41.2601 58.4885 41.3801C58.6793 41.4971 58.8793 41.594 59.0886 41.6709C59.2979 41.7448 59.4902 41.8048 59.6657 41.851L60.6259 42.1095C60.8721 42.1741 61.146 42.2634 61.4476 42.3773C61.7523 42.4911 62.0431 42.6466 62.3201 42.8435C62.6002 43.0374 62.831 43.2867 63.0126 43.5914C63.1942 43.8961 63.285 44.27 63.285 44.7132C63.285 45.2241 63.1511 45.6857 62.8833 46.0981C62.6187 46.5106 62.2309 46.8383 61.72 47.0815C61.2122 47.3246 60.5951 47.4462 59.8688 47.4462C59.1917 47.4462 58.6054 47.3369 58.1099 47.1184C57.6175 46.8999 57.2297 46.5952 56.9466 46.2043C56.6665 45.8135 56.508 45.3595 56.4711 44.8425H57.6529C57.6837 45.1995 57.8037 45.4949 58.013 45.7288C58.2253 45.9597 58.4931 46.132 58.8162 46.2459C59.1425 46.3567 59.4933 46.4121 59.8688 46.4121C60.3058 46.4121 60.6982 46.3413 61.046 46.1997C61.3938 46.0551 61.6692 45.855 61.8723 45.5996C62.0755 45.341 62.177 45.0394 62.177 44.6947C62.177 44.3808 62.0893 44.1254 61.9139 43.9284C61.7385 43.7314 61.5076 43.5714 61.2214 43.4483C60.9352 43.3252 60.6259 43.2175 60.2935 43.1251L59.1301 42.7928C58.3915 42.5804 57.8068 42.2772 57.3759 41.8833C56.945 41.4894 56.7296 40.9739 56.7296 40.3368C56.7296 39.8074 56.8727 39.3458 57.1589 38.9518C57.4482 38.5548 57.836 38.2471 58.3223 38.0285C58.8116 37.807 59.3579 37.6962 59.9611 37.6962C60.5705 37.6962 61.1122 37.8054 61.5861 38.0239C62.0601 38.2394 62.4355 38.5348 62.7125 38.9103C62.9926 39.2858 63.1403 39.712 63.1557 40.1891H62.0478Z" fill="white"/>
<path d="M68.1034 40.1891V41.1124H64.4287V40.1891H68.1034ZM65.4997 38.4902H66.5892V45.2487C66.5892 45.5565 66.6339 45.7873 66.7231 45.9412C66.8154 46.092 66.9324 46.1936 67.074 46.2459C67.2186 46.2951 67.3709 46.3197 67.531 46.3197C67.651 46.3197 67.7495 46.3136 67.8264 46.3013C67.9034 46.2859 67.9649 46.2736 68.0111 46.2643L68.2327 47.243C68.1588 47.2707 68.0557 47.2984 67.9234 47.3261C67.791 47.3569 67.6233 47.3723 67.4202 47.3723C67.1124 47.3723 66.8108 47.3061 66.5154 47.1738C66.223 47.0415 65.9799 46.8399 65.786 46.569C65.5951 46.2982 65.4997 45.9566 65.4997 45.5442V38.4902Z" fill="white"/>
<path d="M71.8289 47.4462C71.3796 47.4462 70.9718 47.3615 70.6056 47.1923C70.2393 47.0199 69.9485 46.7722 69.733 46.449C69.5176 46.1228 69.4099 45.7288 69.4099 45.2672C69.4099 44.8609 69.4899 44.5316 69.6499 44.2793C69.81 44.0238 70.0239 43.8238 70.2916 43.6791C70.5594 43.5345 70.8549 43.4267 71.178 43.356C71.5042 43.2821 71.832 43.2236 72.1613 43.1805C72.5922 43.1251 72.9415 43.0836 73.2093 43.0559C73.4801 43.0251 73.6771 42.9743 73.8002 42.9035C73.9263 42.8328 73.9894 42.7097 73.9894 42.5342V42.4973C73.9894 42.0418 73.8648 41.6879 73.6155 41.4355C73.3693 41.1831 72.9954 41.057 72.4937 41.057C71.9736 41.057 71.5658 41.1708 71.2703 41.3986C70.9749 41.6263 70.7671 41.8695 70.6471 42.128L69.613 41.7587C69.7977 41.3278 70.0439 40.9923 70.3517 40.7523C70.6625 40.5091 71.001 40.3399 71.3673 40.2445C71.7366 40.146 72.0998 40.0967 72.4568 40.0967C72.6845 40.0967 72.9461 40.1244 73.2416 40.1798C73.5401 40.2321 73.8279 40.3414 74.1049 40.5076C74.3849 40.6738 74.6173 40.9246 74.8019 41.2601C74.9866 41.5955 75.0789 42.0449 75.0789 42.6081V47.28H73.9894V46.3197H73.934C73.8602 46.4736 73.7371 46.6383 73.5647 46.8137C73.3924 46.9891 73.1631 47.1384 72.8769 47.2615C72.5906 47.3846 72.2413 47.4462 71.8289 47.4462ZM71.9951 46.4675C72.426 46.4675 72.7891 46.3828 73.0846 46.2136C73.3831 46.0443 73.6078 45.8258 73.7586 45.558C73.9125 45.2903 73.9894 45.0087 73.9894 44.7132V43.716C73.9433 43.7714 73.8417 43.8222 73.6847 43.8684C73.5309 43.9115 73.3524 43.9499 73.1492 43.9838C72.9492 44.0146 72.7538 44.0423 72.5629 44.0669C72.3752 44.0884 72.2229 44.1069 72.1059 44.1223C71.8228 44.1592 71.5581 44.2192 71.3119 44.3023C71.0687 44.3824 70.8718 44.5039 70.721 44.667C70.5732 44.8271 70.4994 45.0456 70.4994 45.3226C70.4994 45.7011 70.6394 45.9874 70.9195 46.1812C71.2026 46.3721 71.5612 46.4675 71.9951 46.4675Z" fill="white"/>
<path d="M77.0675 47.28V40.1891H78.12V41.2601H78.1939C78.3232 40.9092 78.5571 40.6245 78.8956 40.406C79.2341 40.1875 79.6158 40.0783 80.0405 40.0783C80.1205 40.0783 80.2205 40.0798 80.3406 40.0829C80.4606 40.086 80.5514 40.0906 80.6129 40.0967V41.2047C80.576 41.1955 80.4914 41.1816 80.359 41.1631C80.2298 41.1416 80.0928 41.1308 79.9482 41.1308C79.6035 41.1308 79.2957 41.2031 79.0249 41.3478C78.7571 41.4894 78.5447 41.6863 78.3878 41.9387C78.2339 42.188 78.157 42.4727 78.157 42.7928V47.28H77.0675Z" fill="white"/>
<path d="M80.7987 38.841V37.8254H87.8896V38.841H84.9166V47.28H83.7718V38.841H80.7987Z" fill="white"/>
<path d="M91.3612 47.4277C90.7211 47.4277 90.1594 47.2754 89.6762 46.9707C89.1961 46.666 88.8206 46.2397 88.5498 45.6919C88.2821 45.1441 88.1482 44.5039 88.1482 43.7714C88.1482 43.0328 88.2821 42.388 88.5498 41.8371C88.8206 41.2862 89.1961 40.8584 89.6762 40.5538C90.1594 40.2491 90.7211 40.0967 91.3612 40.0967C92.0014 40.0967 92.5615 40.2491 93.0416 40.5538C93.5248 40.8584 93.9003 41.2862 94.1681 41.8371C94.4389 42.388 94.5743 43.0328 94.5743 43.7714C94.5743 44.5039 94.4389 45.1441 94.1681 45.6919C93.9003 46.2397 93.5248 46.666 93.0416 46.9707C92.5615 47.2754 92.0014 47.4277 91.3612 47.4277ZM91.3612 46.449C91.8475 46.449 92.2476 46.3244 92.5615 46.0751C92.8754 45.8258 93.1078 45.498 93.2586 45.0918C93.4094 44.6855 93.4848 44.2454 93.4848 43.7714C93.4848 43.2975 93.4094 42.8558 93.2586 42.4465C93.1078 42.0372 92.8754 41.7063 92.5615 41.454C92.2476 41.2016 91.8475 41.0754 91.3612 41.0754C90.875 41.0754 90.4749 41.2016 90.161 41.454C89.847 41.7063 89.6147 42.0372 89.4639 42.4465C89.3131 42.8558 89.2377 43.2975 89.2377 43.7714C89.2377 44.2454 89.3131 44.6855 89.4639 45.0918C89.6147 45.498 89.847 45.8258 90.161 46.0751C90.4749 46.3244 90.875 46.449 91.3612 46.449Z" fill="white"/>
<path d="M99.1181 47.4277C98.4779 47.4277 97.9163 47.2754 97.4331 46.9707C96.9529 46.666 96.5775 46.2397 96.3066 45.6919C96.0389 45.1441 95.905 44.5039 95.905 43.7714C95.905 43.0328 96.0389 42.388 96.3066 41.8371C96.5775 41.2862 96.9529 40.8584 97.4331 40.5538C97.9163 40.2491 98.4779 40.0967 99.1181 40.0967C99.7582 40.0967 100.318 40.2491 100.798 40.5538C101.282 40.8584 101.657 41.2862 101.925 41.8371C102.196 42.388 102.331 43.0328 102.331 43.7714C102.331 44.5039 102.196 45.1441 101.925 45.6919C101.657 46.2397 101.282 46.666 100.798 46.9707C100.318 47.2754 99.7582 47.4277 99.1181 47.4277ZM99.1181 46.449C99.6043 46.449 100.004 46.3244 100.318 46.0751C100.632 45.8258 100.865 45.498 101.015 45.0918C101.166 44.6855 101.242 44.2454 101.242 43.7714C101.242 43.2975 101.166 42.8558 101.015 42.4465C100.865 42.0372 100.632 41.7063 100.318 41.454C100.004 41.2016 99.6043 41.0754 99.1181 41.0754C98.6318 41.0754 98.2317 41.2016 97.9178 41.454C97.6039 41.7063 97.3715 42.0372 97.2207 42.4465C97.0699 42.8558 96.9945 43.2975 96.9945 43.7714C96.9945 44.2454 97.0699 44.6855 97.2207 45.0918C97.3715 45.498 97.6039 45.8258 97.9178 46.0751C98.2317 46.3244 98.6318 46.449 99.1181 46.449Z" fill="white"/>
<path d="M105.084 37.8254V47.28H103.994V37.8254H105.084Z" fill="white"/>
<path d="M112.102 41.7771L111.123 42.0541C111.062 41.891 110.971 41.7325 110.851 41.5786C110.734 41.4217 110.574 41.2924 110.371 41.1908C110.168 41.0893 109.908 41.0385 109.591 41.0385C109.157 41.0385 108.795 41.1385 108.506 41.3386C108.219 41.5355 108.076 41.7864 108.076 42.091C108.076 42.3619 108.175 42.5758 108.372 42.7327C108.569 42.8897 108.877 43.0205 109.295 43.1251L110.348 43.3837C110.982 43.5375 111.454 43.773 111.765 44.09C112.076 44.4039 112.231 44.8086 112.231 45.3041C112.231 45.7104 112.114 46.0735 111.88 46.3936C111.649 46.7137 111.326 46.966 110.911 47.1507C110.495 47.3354 110.012 47.4277 109.461 47.4277C108.738 47.4277 108.139 47.2707 107.665 46.9568C107.192 46.6429 106.891 46.1843 106.765 45.5811L107.799 45.3226C107.898 45.7042 108.084 45.9904 108.358 46.1812C108.635 46.3721 108.997 46.4675 109.443 46.4675C109.951 46.4675 110.354 46.3597 110.652 46.1443C110.954 45.9258 111.105 45.6642 111.105 45.3595C111.105 45.1133 111.019 44.9071 110.846 44.7409C110.674 44.5716 110.409 44.4454 110.052 44.3624L108.87 44.0854C108.221 43.9315 107.744 43.693 107.439 43.3698C107.138 43.0436 106.987 42.6358 106.987 42.1464C106.987 41.7464 107.099 41.3924 107.324 41.0847C107.552 40.7769 107.861 40.5353 108.252 40.3599C108.646 40.1844 109.092 40.0967 109.591 40.0967C110.292 40.0967 110.843 40.2506 111.243 40.5584C111.646 40.8661 111.933 41.2724 112.102 41.7771Z" fill="white"/>
</svg>
